# xmcd CD database file
#
# Track frame offsets:
#	150
#	24842
#	50172
#	84435
#	138665
#	153827
#	163760
#	189257
#	213927
#
# Disc length: 3345 seconds
#
# Revision: 0
# Processed by: cddbd v1.5.2PL0 Copyright (c) Steve Scherf et al.
# Submitted via: CDex 1.70beta2
#
DISCID=6e0d0f09
DTITLE=Gandalf - Echoes from the ancient Dreams
DYEAR=1995
DGENRE=New Age
TTITLE0=Echoes from the ancient dreams I
TTITLE1=The inner flame
TTITLE2=A flower in the dessert
TTITLE3=Heartbeat of the universe
TTITLE4=Cloudshadows
TTITLE5=So close - so far
TTITLE6=The magic of spring
TTITLE7=Shine on full moon
TTITLE8=Echoes from ancient drems II
EXTD=YEAR: 1995
EXTT0=
EXTT1=
EXTT2=
EXTT3=
EXTT4=
EXTT5=
EXTT6=
EXTT7=
EXTT8=
PLAYORDER=
